<svg version="1.1" id="Layer_1" xmlns="http://www.w3.org/2000/svg" xmlns:xlink="http://www.w3.org/1999/xlink" x="0px" y="0px"
	 width="100%" viewBox="0 0 500 500" enable-background="new 0 0 500 500" xml:space="preserve">
<path fill="#000000" opacity="1.000000" stroke="none" 
	d="
M267.000000,501.000000 
	C178.000015,501.000000 89.500046,501.000000 1.000047,501.000000 
	C1.000032,334.333405 1.000032,167.666794 1.000016,1.000137 
	C167.666565,1.000091 334.333130,1.000091 500.999756,1.000046 
	C500.999847,167.666519 500.999847,334.333038 500.999939,500.999786 
	C423.166656,501.000000 345.333344,501.000000 267.000000,501.000000 
M266.609589,26.145191 
	C257.066254,26.097578 247.522903,26.031725 237.979675,26.044313 
	C237.358139,26.045132 236.737381,26.648090 235.346100,27.307404 
	C233.554367,27.547503 231.767410,27.833714 229.970062,28.019606 
	C222.734161,28.767979 215.312561,28.719913 208.299408,30.391680 
	C197.493027,32.967667 186.943741,36.644485 176.325058,39.980568 
	C158.235016,45.663918 141.553253,54.021492 125.908279,64.881050 
	C107.739334,77.492561 91.710098,92.262642 77.520935,109.090500 
	C71.479164,116.255844 65.075180,123.363724 60.465675,131.429199 
	C53.958519,142.815094 48.164410,154.763748 43.537640,167.027222 
	C38.486240,180.416199 34.632645,194.319305 31.181736,208.227768 
	C28.926195,217.318420 28.315979,226.817337 26.139048,236.401016 
	C26.093475,245.940399 26.029692,255.479813 26.044178,265.019104 
	C26.045124,265.640991 26.646624,266.261993 27.095881,267.718628 
	C28.099836,275.232697 28.919796,282.776855 30.144154,290.254852 
	C33.151867,308.625000 38.693207,326.293671 46.100353,343.316895 
	C51.820370,356.462799 57.874435,369.434662 67.527275,380.454102 
	C75.581551,389.648682 82.328194,400.019592 90.653244,408.936584 
	C97.745445,416.533112 105.869072,423.331299 114.247307,429.520264 
	C124.426170,437.039307 134.906693,444.389038 146.063538,450.285339 
	C160.432648,457.879333 175.675018,463.560669 191.448593,468.064392 
	C205.934082,472.200317 220.523743,475.199371 235.428864,475.789062 
	C249.492706,476.345551 263.728668,476.265717 277.688141,474.688538 
	C291.300140,473.150635 305.047516,470.546234 318.031891,466.272461 
	C335.534027,460.511688 352.992767,453.993256 368.298157,443.248688 
	C379.512482,435.376099 390.923431,427.664368 401.363800,418.836670 
	C416.650635,405.911163 429.522797,390.508972 440.107147,373.596863 
	C447.789917,361.321014 454.123230,348.086243 459.959412,334.796509 
	C468.246643,315.925446 473.076416,295.977448 474.943848,275.417969 
	C475.646759,267.679474 476.110931,259.857513 475.826050,252.105118 
	C475.363739,239.525055 475.022186,226.845581 473.141907,214.433441 
	C469.788055,192.293701 461.943604,171.540863 452.380249,151.251785 
	C444.510193,134.555008 433.700195,120.045273 422.190308,106.001892 
	C415.514404,97.856483 407.687378,90.561584 399.810455,83.519173 
	C391.694427,76.263016 383.327087,69.120872 374.291229,63.096584 
	C357.109070,51.641163 338.454224,42.838287 318.545990,37.280720 
	C305.932281,33.759499 292.928467,31.618608 280.071960,28.994028 
	C275.722748,28.106157 271.288696,27.633692 266.609589,26.145191 
z"/>
<path fill="#1C2C2C" opacity="1.000000" stroke="none" 
	d="
M26.968784,236.133377 
	C28.315979,226.817337 28.926195,217.318420 31.181736,208.227768 
	C34.632645,194.319305 38.486240,180.416199 43.537640,167.027222 
	C48.164410,154.763748 53.958519,142.815094 60.465675,131.429199 
	C65.075180,123.363724 71.479164,116.255844 77.520935,109.090500 
	C91.710098,92.262642 107.739334,77.492561 125.908279,64.881050 
	C141.553253,54.021492 158.235016,45.663918 176.325058,39.980568 
	C186.943741,36.644485 197.493027,32.967667 208.299408,30.391680 
	C215.312561,28.719913 222.734161,28.767979 229.970062,28.019606 
	C231.767410,27.833714 233.554367,27.547503 236.192383,27.145176 
	C246.990250,26.979095 256.941833,26.975241 266.893433,26.971386 
	C271.288696,27.633692 275.722748,28.106157 280.071960,28.994028 
	C292.928467,31.618608 305.932281,33.759499 318.545990,37.280720 
	C338.454224,42.838287 357.109070,51.641163 374.291229,63.096584 
	C383.327087,69.120872 391.694427,76.263016 399.810455,83.519173 
	C407.687378,90.561584 415.514404,97.856483 422.190308,106.001892 
	C433.700195,120.045273 444.510193,134.555008 452.380249,151.251785 
	C461.943604,171.540863 469.788055,192.293701 473.141907,214.433441 
	C475.022186,226.845581 475.363739,239.525055 475.826050,252.105118 
	C476.110931,259.857513 475.646759,267.679474 474.943848,275.417969 
	C473.076416,295.977448 468.246643,315.925446 459.959412,334.796509 
	C454.123230,348.086243 447.789917,361.321014 440.107147,373.596863 
	C429.522797,390.508972 416.650635,405.911163 401.363800,418.836670 
	C390.923431,427.664368 379.512482,435.376099 368.298157,443.248688 
	C352.992767,453.993256 335.534027,460.511688 318.031891,466.272461 
	C305.047516,470.546234 291.300140,473.150635 277.688141,474.688538 
	C263.728668,476.265717 249.492706,476.345551 235.428864,475.789062 
	C220.523743,475.199371 205.934082,472.200317 191.448593,468.064392 
	C175.675018,463.560669 160.432648,457.879333 146.063538,450.285339 
	C134.906693,444.389038 124.426170,437.039307 114.247307,429.520264 
	C105.869072,423.331299 97.745445,416.533112 90.653244,408.936584 
	C82.328194,400.019592 75.581551,389.648682 67.527275,380.454102 
	C57.874435,369.434662 51.820370,356.462799 46.100353,343.316895 
	C38.693207,326.293671 33.151867,308.625000 30.144154,290.254852 
	C28.919796,282.776855 28.099836,275.232697 27.034805,266.839722 
	C26.972084,256.018372 26.970434,246.075867 26.968784,236.133377 
M101.697685,261.920990 
	C102.153809,261.896027 102.609940,261.871063 103.125221,262.595734 
	C104.292908,269.147369 108.583199,273.074921 114.750046,273.866638 
	C122.432793,274.852966 127.414444,270.331299 130.599686,262.410736 
	C132.255630,266.286346 133.592331,269.118164 134.680679,272.042419 
	C135.852859,275.191925 136.947495,278.145966 141.522705,275.615814 
	C141.075943,274.264954 140.744293,273.015594 140.258163,271.829590 
	C133.568481,255.507721 126.868881,239.189911 120.148254,222.880768 
	C114.523697,209.231537 114.509186,209.123047 99.842201,209.242203 
	C95.672485,209.276077 93.064705,208.716782 93.632126,203.621887 
	C93.751991,202.545563 91.882561,201.247711 90.929710,200.051926 
	C89.737495,201.100525 87.427383,202.280869 87.532936,203.176544 
	C88.265587,209.393372 84.574776,209.556412 80.149094,209.206635 
	C78.162224,209.049606 76.103226,209.467056 74.162285,209.131012 
	C68.514801,208.153244 65.960876,210.872513 63.959892,215.889450 
	C56.564018,234.432587 48.716782,252.795364 41.199562,271.291107 
	C40.592117,272.785706 41.203075,274.775452 41.247860,276.535126 
	C42.855148,275.431000 45.043484,274.671631 45.946632,273.149658 
	C47.729164,270.145813 48.799801,266.719452 50.612408,262.401672 
	C53.803791,269.975708 58.014877,274.354431 65.725998,273.970184 
	C73.486633,273.583466 76.309547,267.772430 79.260139,260.796509 
	C82.003891,266.864655 84.213821,271.752197 86.652161,277.144897 
	C88.438835,275.466614 89.567619,274.406281 91.193863,272.878693 
	C92.027374,274.566406 92.745934,276.021332 93.464493,277.476288 
	C94.014122,277.213867 94.563744,276.951447 95.113373,276.689026 
	C97.083366,271.806885 99.053360,266.924713 101.697685,261.920990 
M77.543449,297.159302 
	C82.171104,292.894409 86.798759,288.629517 91.501648,284.295288 
	C91.758446,284.708893 92.377060,285.669006 92.960228,286.650146 
	C98.554573,296.062225 107.050903,300.831055 117.768883,300.602600 
	C129.129761,300.360474 137.565018,294.627808 142.920029,284.518250 
	C144.580444,281.383575 143.609100,280.302582 140.171204,280.500336 
	C135.370346,280.776489 130.552551,280.887238 125.743156,280.860474 
	C113.107330,280.790131 100.472412,280.564514 87.836609,280.480194 
	C73.380096,280.383698 58.922966,280.341431 44.466190,280.356873 
	C42.155106,280.359344 39.844475,280.786987 37.342266,281.037231 
	C43.048962,297.853088 60.611984,304.795654 77.543449,297.159302 
M356.500000,254.953720 
	C381.997406,254.947983 407.494904,254.962036 432.992157,254.896378 
	C434.890900,254.891495 436.788208,254.315094 438.686188,254.004379 
	C438.670868,253.265640 438.655548,252.526901 438.640228,251.788162 
	C436.393280,251.526230 434.146545,251.037949 431.899323,251.035599 
	C380.770294,250.982025 329.641235,250.981369 278.512177,250.971237 
	C241.682785,250.963943 204.853348,250.929489 168.024185,251.018570 
	C165.782928,251.023987 163.544037,252.011993 161.304047,252.542801 
	C163.542709,253.341812 165.779922,254.834152 168.020248,254.838837 
	C230.513306,254.969498 293.006683,254.949448 356.500000,254.953720 
M243.532547,236.762650 
	C242.927475,234.668167 242.322388,232.573685 241.647995,230.239273 
	C239.063080,232.101730 236.841034,233.300674 235.189575,235.041031 
	C234.173355,236.111954 234.028839,238.010040 233.492920,239.536713 
	C236.903473,239.934280 240.314041,240.331848 243.724594,240.729416 
	C243.797272,239.623795 243.869965,238.518188 243.532547,236.762650 
M374.200623,237.029160 
	C373.797455,235.157349 373.394287,233.285538 372.991119,231.413727 
	C372.530853,231.241653 372.070557,231.069580 371.610291,230.897507 
	C370.519379,234.113113 372.169983,241.936966 365.346252,235.278610 
	C363.493927,238.080490 363.335236,240.202515 366.945465,240.821625 
	C368.970612,241.168900 371.160492,241.008591 373.185822,240.613617 
	C373.761810,240.501312 374.020630,238.762634 374.200623,237.029160 
M313.963135,263.958344 
	C310.736511,262.546844 308.403259,265.292236 308.637482,270.053833 
	C310.949493,269.809570 313.245575,269.566986 316.178558,269.257111 
	C315.464020,267.499268 314.869110,266.035706 313.963135,263.958344 
z"/>
<path fill="#FFFFFF" opacity="1.000000" stroke="none" 
	d="
M266.751526,26.558289 
	C256.941833,26.975241 246.990250,26.979095 236.577469,26.976954 
	C236.737381,26.648090 237.358139,26.045132 237.979675,26.044313 
	C247.522903,26.031725 257.066254,26.097578 266.751526,26.558289 
z"/>
<path fill="#FFFFFF" opacity="1.000000" stroke="none" 
	d="
M26.553917,236.267197 
	C26.970434,246.075867 26.972084,256.018372 26.971251,266.422119 
	C26.646624,266.261993 26.045124,265.640991 26.044178,265.019104 
	C26.029692,255.479813 26.093475,245.940399 26.553917,236.267197 
z"/>
<path fill="#587D7E" opacity="1.000000" stroke="none" 
	d="
M101.023354,262.042572 
	C99.053360,266.924713 97.083366,271.806885 95.113373,276.689026 
	C94.563744,276.951447 94.014122,277.213867 93.464493,277.476288 
	C92.745934,276.021332 92.027374,274.566406 91.193863,272.878693 
	C89.567619,274.406281 88.438835,275.466614 86.652161,277.144897 
	C84.213821,271.752197 82.003891,266.864655 79.260139,260.796509 
	C76.309547,267.772430 73.486633,273.583466 65.725998,273.970184 
	C58.014877,274.354431 53.803791,269.975708 50.612408,262.401672 
	C48.799801,266.719452 47.729164,270.145813 45.946632,273.149658 
	C45.043484,274.671631 42.855148,275.431000 41.247860,276.535126 
	C41.203075,274.775452 40.592117,272.785706 41.199562,271.291107 
	C48.716782,252.795364 56.564018,234.432587 63.959892,215.889450 
	C65.960876,210.872513 68.514801,208.153244 74.162285,209.131012 
	C76.103226,209.467056 78.162224,209.049606 80.149094,209.206635 
	C84.574776,209.556412 88.265587,209.393372 87.532936,203.176544 
	C87.427383,202.280869 89.737495,201.100525 90.929718,200.051926 
	C91.882561,201.247711 93.751991,202.545563 93.632126,203.621887 
	C93.064705,208.716782 95.672485,209.276077 99.842201,209.242203 
	C114.509186,209.123047 114.523697,209.231537 120.148254,222.880768 
	C126.868881,239.189911 133.568481,255.507721 140.258163,271.829590 
	C140.744293,273.015594 141.075943,274.264954 141.522705,275.615814 
	C136.947495,278.145966 135.852859,275.191925 134.680679,272.042419 
	C133.592331,269.118164 132.255630,266.286346 130.599686,262.410736 
	C127.414444,270.331299 122.432793,274.852966 114.750046,273.866638 
	C108.583199,273.074921 104.292908,269.147369 103.035309,261.946259 
	C102.304710,261.545380 101.664032,261.793976 101.023354,262.042572 
M108.101982,226.545654 
	C109.164421,223.984268 108.378159,222.872910 105.543297,222.927902 
	C100.397003,223.027771 95.247375,222.955002 90.099136,222.954727 
	C84.509552,222.954437 78.919975,222.954651 71.888397,222.954651 
	C78.239510,239.011566 84.145943,253.944244 90.052383,268.876953 
	C90.546417,268.731628 91.040451,268.586304 91.534485,268.440979 
	C96.977524,254.724030 102.420563,241.007095 108.101982,226.545654 
M112.383186,235.902954 
	C109.447136,242.974854 106.511086,250.046768 103.343224,257.677002 
	C112.441200,257.677002 120.296898,257.677002 128.967636,257.677002 
	C124.684586,247.468964 120.662163,237.882095 116.078857,226.958450 
	C114.543686,230.697159 113.617737,232.952179 112.383186,235.902954 
M65.403564,229.202347 
	C63.903168,231.836411 62.155708,234.362823 60.951645,237.126007 
	C58.070297,243.738434 55.444683,250.462296 52.525707,257.606506 
	C61.280560,257.606506 68.975861,257.606506 78.194206,257.606506 
	C73.873413,247.648422 69.951324,238.609222 65.403564,229.202347 
M110.640930,266.918335 
	C115.639191,273.252319 121.611511,269.969360 124.575066,262.967163 
	C120.622391,260.808289 110.041557,261.950623 106.315125,265.178467 
	C107.656281,265.681000 108.814056,266.114777 110.640930,266.918335 
z"/>
<path fill="#597F80" opacity="1.000000" stroke="none" 
	d="
M77.211761,297.339813 
	C60.611984,304.795654 43.048962,297.853088 37.342266,281.037231 
	C39.844475,280.786987 42.155106,280.359344 44.466190,280.356873 
	C58.922966,280.341431 73.380096,280.383698 87.836609,280.480194 
	C100.472412,280.564514 113.107330,280.790131 125.743156,280.860474 
	C130.552551,280.887238 135.370346,280.776489 140.171204,280.500336 
	C143.609100,280.302582 144.580444,281.383575 142.920029,284.518250 
	C137.565018,294.627808 129.129761,300.360474 117.768883,300.602600 
	C107.050903,300.831055 98.554573,296.062225 92.960228,286.650146 
	C92.377060,285.669006 91.758446,284.708893 91.501648,284.295288 
	C86.798759,288.629517 82.171104,292.894409 77.211761,297.339813 
z"/>
<path fill="#365450" opacity="1.000000" stroke="none" 
	d="
M356.000000,254.953995 
	C293.006683,254.949448 230.513306,254.969498 168.020248,254.838837 
	C165.779922,254.834152 163.542709,253.341812 161.304047,252.542816 
	C163.544037,252.011993 165.782928,251.023987 168.024185,251.018570 
	C204.853348,250.929489 241.682785,250.963943 278.512177,250.971237 
	C329.641235,250.981369 380.770294,250.982025 431.899323,251.035599 
	C434.146545,251.037949 436.393280,251.526230 438.640228,251.788162 
	C438.655548,252.526901 438.670868,253.265640 438.686188,254.004379 
	C436.788208,254.315094 434.890900,254.891495 432.992157,254.896378 
	C407.494904,254.962036 381.997406,254.947983 356.000000,254.953995 
z"/>
<path fill="#152525" opacity="1.000000" stroke="none" 
	d="
M243.737595,237.087616 
	C243.869965,238.518188 243.797272,239.623795 243.724594,240.729416 
	C240.314041,240.331848 236.903473,239.934280 233.492920,239.536713 
	C234.028839,238.010040 234.173355,236.111954 235.189575,235.041031 
	C236.841034,233.300674 239.063080,232.101730 241.647995,230.239273 
	C242.322388,232.573685 242.927475,234.668167 243.737595,237.087616 
z"/>
<path fill="#142424" opacity="1.000000" stroke="none" 
	d="
M374.312744,237.399475 
	C374.020630,238.762634 373.761810,240.501312 373.185822,240.613617 
	C371.160492,241.008591 368.970612,241.168900 366.945465,240.821625 
	C363.335236,240.202515 363.493927,238.080490 365.346252,235.278610 
	C372.169983,241.936966 370.519379,234.113113 371.610291,230.897507 
	C372.070557,231.069580 372.530853,231.241653 372.991119,231.413727 
	C373.394287,233.285538 373.797455,235.157349 374.312744,237.399475 
z"/>
<path fill="#122222" opacity="1.000000" stroke="none" 
	d="
M314.118683,264.265259 
	C314.869110,266.035706 315.464020,267.499268 316.178558,269.257111 
	C313.245575,269.566986 310.949493,269.809570 308.637482,270.053833 
	C308.403259,265.292236 310.736511,262.546844 314.118683,264.265259 
z"/>
<path fill="#4B6A6C" opacity="1.000000" stroke="none" 
	d="
M101.360519,261.981781 
	C101.664032,261.793976 102.304710,261.545380 103.005722,261.571442 
	C102.609940,261.871063 102.153809,261.896027 101.360519,261.981781 
z"/>
<path fill="#1D2F30" opacity="1.000000" stroke="none" 
	d="
M107.982788,226.917908 
	C102.420563,241.007095 96.977524,254.724030 91.534485,268.440979 
	C91.040451,268.586304 90.546417,268.731628 90.052383,268.876953 
	C84.145943,253.944244 78.239510,239.011566 71.888397,222.954651 
	C78.919975,222.954651 84.509552,222.954437 90.099136,222.954727 
	C95.247375,222.955002 100.397003,223.027771 105.543297,222.927902 
	C108.378159,222.872910 109.164421,223.984268 107.982788,226.917908 
z"/>
<path fill="#1E3032" opacity="1.000000" stroke="none" 
	d="
M112.537491,235.555084 
	C113.617737,232.952179 114.543686,230.697159 116.078857,226.958450 
	C120.662163,237.882095 124.684586,247.468964 128.967636,257.677002 
	C120.296898,257.677002 112.441200,257.677002 103.343224,257.677002 
	C106.511086,250.046768 109.447136,242.974854 112.537491,235.555084 
z"/>
<path fill="#1D3031" opacity="1.000000" stroke="none" 
	d="
M65.716400,229.386185 
	C69.951324,238.609222 73.873413,247.648422 78.194206,257.606506 
	C68.975861,257.606506 61.280560,257.606506 52.525707,257.606506 
	C55.444683,250.462296 58.070297,243.738434 60.951645,237.126007 
	C62.155708,234.362823 63.903168,231.836411 65.716400,229.386185 
z"/>
<path fill="#567F7F" opacity="1.000000" stroke="none" 
	d="
M110.306381,266.733459 
	C108.814056,266.114777 107.656281,265.681000 106.315125,265.178467 
	C110.041557,261.950623 120.622391,260.808289 124.575066,262.967163 
	C121.611511,269.969360 115.639191,273.252319 110.306381,266.733459 
z"/>
</svg>